:SAMPLES-PER-SECOND 30
:FULLY-SPECIFIED
:DEGREES
176
root  5.634377697 39.43333363 0.3509355577 -147.8029785 -82.29460144 149.3070068
lowerback  15.95820045 4.155149937 -4.502759933
upperback  5.618969917 4.440979958 -0.2466060072
thorax  -3.26425004 2.037460089 1.455189943
lowerneck  -2.922280073 7.858880043 -0.8442209959
upperneck  4.29200983 10.55869961 -0.8175529838
head  1.828500032 5.228899956 0.1424790025
lclavicle  0 -9.442270133e-015 7.951389973e-016
lhumerus  -1.326789975 -16.40600014 81.35679626
lradius  2.45429978e-031 -2.538750997e-031 134.0310059
lwrist  -7.062250077e-031 -1.765562519e-031 5.383749962
lhand  -1.496451383e-031 -27.76390076 20.11240005
lfingers  90 7.125020027 -90
lthumb  89.89689403 5.08795885 91.16245106
rclavicle  0 -9.442270133e-015 7.951389973e-016
rhumerus  7.006840229 31.43810081 -83.99289703
rradius  -2.11818703e-031 2.82526596e-031 126.8600006
rwrist  0 -0 -7.866549969
rhand  -7.920061211e-032 -33.2840004 9.303460121
rfingers  -90 -7.125020027 -90
rthumb  -92.93752616 -24.25625642 -97.11982154
rfemur  -20.50049973 3.131860018 -1.016739964
rtibia  -0 0 64.79170227
rfoot  -4.778459401e-032 -11.05580044 0.1559859961
rtoes  5.373923086 19.29304026 -105.8922705
lfemur  -32.01409912 -6.002429962 -3.474750042
ltibia  -0 0 47.34609985
lfoot  4.414437658e-032 -0.8889939785 0.3416379988
ltoes  -4.250644065 -19.5611806 -102.515957
177
root  5.666933285 39.38911017 0.2718422122 -150.1099854 -82.45539856 151.4329834
lowerback  16.09860039 4.048230171 -3.986089945
upperback  5.544479847 4.382699966 -0.1031240001
thorax  -3.389219999 2.015269995 1.318009973
lowerneck  -3.290329933 7.881450176 -0.9333950281
upperneck  4.366529942 10.61240005 -1.045429945
head  1.926370025 5.246469975 0.1083789989
lclavicle  0 -9.442270133e-015 7.951389973e-016
lhumerus  -1.648419976 -16.52210045 81.5358963
lradius  2.455628677e-031 -2.537465633e-031 134.0610046
lwrist  -7.062250077e-031 -1.765562519e-031 4.857089996
lhand  -1.496451383e-031 -27.76390076 20.11240005
lfingers  90 7.125020027 -90
lthumb  89.89689403 5.08795885 91.16245106
rclavicle  0 -9.442270133e-015 7.951389973e-016
rhumerus  7.596409798 31.80750084 -83.2928009
rradius  -2.114635094e-031 2.827925469e-031 126.788002
rwrist  1.412450015e-030 1.765562519e-031 -7.992239952
rhand  -7.920061211e-032 -33.2840004 9.303460121
rfingers  -90 -7.125020027 -90
rthumb  -92.93752616 -24.25625642 -97.11982154
rfemur  -20.27149963 4.171500206 -0.5789179802
rtibia  -0 0 63.59989929
rfoot  -4.527065945e-032 -12.83759975 -1.772590041
rtoes  5.373923086 19.29304026 -105.8922705
lfemur  -32.41930008 -5.040410042 -3.593179941
ltibia  -0 0 50.28590012
lfoot  4.966677496e-032 -1.168540001 -0.6668679714
ltoes  -4.250644065 -19.5611806 -102.515957
178
root  5.696888796 39.3231099 0.1883582219 -154.1229858 -82.68910217 155.2379761
lowerback  16.22200012 3.929169893 -3.325429916
upperback  5.492479801 4.33878994 0.1503569931
thorax  -3.480839968 1.998409986 1.214679956
lowerneck  -3.709630013 7.93445015 -1.020630002
upperneck  4.520820141 10.70969963 -1.261150002
head  2.059639931 5.283699989 0.08363600075
lclavicle  0 -9.442270133e-015 7.951389973e-016
lhumerus  -2.057009935 -16.56209946 81.77690125
lradius  2.454388349e-031 -2.538665371e-031 134.0330048
lwrist  -7.062250077e-031 -1.765562519e-031 4.567949772
lhand  -1.496451383e-031 -27.76390076 20.11240005
lfingers  90 7.125020027 -90
lthumb  89.89689403 5.08795885 91.16245106
rclavicle  0 -9.442270133e-015 7.951389973e-016
rhumerus  8.096630096 32.10240173 -82.57150269
rradius  -2.112413108e-031 2.829585641e-031 126.7429962
rwrist  7.062250077e-031 -1.765562519e-031 -7.898610115
rhand  -7.920061211e-032 -33.2840004 9.303460121
rfingers  -90 -7.125020027 -90
rthumb  -92.93752616 -24.25625642 -97.11982154
rfemur  -19.91309929 5.527249813 0.206949994
rtibia  -0 0 62.16699982
rfoot  -4.55631458e-032 -14.36270046 -4.189610004
rtoes  5.373923086 19.29304026 -105.8922705
lfemur  -32.76879883 -3.980870008 -3.504019976
ltibia  -0 0 53.30630112
lfoot  4.415381811e-032 -1.481279969 -1.664790034
ltoes  -4.250644065 -19.5611806 -102.515957
179
root  5.730155509 39.22422214 0.09044866393 -152.5910034 -82.53399658 153.6019897
lowerback  16.24850082 3.868920088 -3.558340073
upperback  5.39233017 4.227220058 0.1581940055
thorax  -3.612119913 1.947569966 1.36995995
lowerneck  -4.13176012 8.025699615 -1.032330036
upperneck  4.673530102 10.85270023 -1.424070001
head  2.195199966 5.345449924 0.06491339952
lclavicle  0 -9.442270133e-015 7.951389973e-016
lhumerus  -2.539959908 -16.4817009 81.97969818
lradius  2.446311608e-031 -2.546449205e-031 133.8509979
lwrist  -1.059337512e-030 -1.765562519e-031 4.342140198
lhand  -1.496451383e-031 -27.76390076 20.11240005
lfingers  90 7.125020027 -90
lthumb  89.89689403 5.08795885 91.16245106
rclavicle  0 -9.442270133e-015 7.951389973e-016
rhumerus  8.523679733 32.57009888 -81.98519897
rradius  -2.098560035e-031 2.839874965e-031 126.4629974
rwrist  1.412450015e-030 -1.765562519e-031 -7.334549904
rhand  -7.920061211e-032 -33.2840004 9.303460121
rfingers  -90 -7.125020027 -90
rthumb  -92.93752616 -24.25625642 -97.11982154
rfemur  -19.65340042 6.929130077 -0.05747859925
rtibia  -0 0 60.50350189
rfoot  -4.582463071e-032 -15.58839989 -5.975130081
rtoes  5.373923086 19.29304026 -105.8922705
lfemur  -33.18389893 -2.957020044 -4.334440231
ltibia  -0 0 56.23839951
lfoot  4.416188042e-032 -1.841899991 -2.258739948
ltoes  -4.250644065 -19.5611806 -102.515957
180
root  5.751822314 39.11311232 -0.001266708884 -151.3469849 -82.36579895 152.1589966
lowerback  16.34790039 3.798409939 -3.70656991
upperback  5.288149834 4.109449863 0.1436049938
thorax  -3.77779007 1.894320011 1.452000022
lowerneck  -4.306169987 8.12858963 -1.079939961
upperneck  4.628990173 11.00160027 -1.520859957
head  2.215409994 5.415770054 0.05469819903
lclavicle  0 -9.442270133e-015 7.951389973e-016
lhumerus  -3.180900097 -16.49469948 82.36000061
lradius  2.435623391e-031 -2.556674155e-031 133.6109924
lwrist  -7.062250077e-031 -0 3.937760115
lhand  -1.496451383e-031 -27.76390076 20.11240005
lfingers  90 7.125020027 -90
lthumb  89.89689403 5.08795885 91.16245106
rclavicle  0 -9.442270133e-015 7.951389973e-016
rhumerus  8.792140007 32.95759964 -81.48049927
rradius  -2.076739771e-031 2.855870438e-031 126.0240021
rwrist  1.412450015e-030 -1.765562519e-031 -6.914800167
rhand  -7.920061211e-032 -33.2840004 9.303460121
rfingers  -90 -7.125020027 -90
rthumb  -92.93752616 -24.25625642 -97.11982154
rfemur  -19.16069984 8.349499702 -0.3358449936
rtibia  -0 0 58.51649857
rfoot  -0 -16.27709961 -7.324890137
rtoes  5.373923086 19.29304026 -105.8922705
lfemur  -33.35240173 -1.991299987 -5.135920048
ltibia  -0 0 58.96110153
lfoot  4.417311007e-032 -2.249710083 -2.534280062
ltoes  -4.250644065 -19.5611806 -102.515957
181
root  5.749266542 38.99533429 -0.07900111084 -155.1560059 -82.561203 155.7009888
lowerback  16.36459923 3.669950008 -3.020499945
upperback  5.262639999 4.061870098 0.3396779895
thorax  -3.78015995 1.872859955 1.281839967
lowerneck  -4.49601984 8.202260017 -1.022699952
upperneck  4.641620159 11.10980034 -1.678550005
head  2.267659903 5.464590073 0.01097329985
lclavicle  0 -9.442270133e-015 7.951389973e-016
lhumerus  -3.864789963 -16.71520042 82.96440125
lradius  2.421934282e-031 -2.569645573e-031 133.3049927
lwrist  -1.412450015e-030 -3.531125038e-031 3.445630074
lhand  -1.496451383e-031 -27.76390076 20.11240005
lfingers  90 7.125020027 -90
lthumb  89.89689403 5.08795885 91.16245106
rclavicle  0 -9.442270133e-015 7.951389973e-016
rhumerus  8.883859634 33.0279007 -81.0266037
rradius  -2.057202486e-031 2.869975953e-031 125.6330032
rwrist  1.412450015e-030 -0 -6.861340046
rhand  -7.920061211e-032 -33.2840004 9.303460121
rfingers  -90 -7.125020027 -90
rthumb  -92.93752616 -24.25625642 -97.11982154
rfemur  -18.39089966 9.916150093 0.3495790064
rtibia  -0 0 56.37360001
rfoot  -0 -16.62759972 -8.821339607
rtoes  5.373923086 19.29304026 -105.8922705
lfemur  -33.26570129 -1.003790021 -5.067860126
ltibia  -0 0 61.38489914
lfoot  4.418711325e-032 -2.672250032 -2.982980013
ltoes  -4.250644065 -19.5611806 -102.515957
182
root  5.736644625 38.84888897 -0.1669744455 -158.8850098 -82.66660309 159.2050171
lowerback  16.23159981 3.59491992 -2.487020016
upperback  5.263060093 4.064750195 0.5316550136
thorax  -3.687680006 1.87511003 1.191050053
lowerneck  -4.887509823 8.293540001 -0.7383930087
upperneck  4.892109871 11.23960018 -1.905930042
head  2.455159903 5.520009995 -0.07160349935
lclavicle  0 -9.442270133e-015 7.951389973e-016
lhumerus  -4.561999798 -16.86590004 83.57949829
lradius  2.40763545e-031 -2.58304773e-031 132.9869995
lwrist  -7.062250077e-031 -0 3.261149883
lhand  -1.496451383e-031 -27.76390076 20.11240005
lfingers  90 7.125020027 -90
lthumb  89.89689403 5.08795885 91.16245106
rclavicle  0 -9.442270133e-015 7.951389973e-016
rhumerus  8.881799698 33.04959869 -80.72000122
rradius  -2.034195534e-031 2.886328562e-031 125.1750031
rwrist  0 -0 -6.709640026
rhand  -7.920061211e-032 -33.2840004 9.303460121
rfingers  -90 -7.125020027 -90
rthumb  -92.93752616 -24.25625642 -97.11982154
rfemur  -17.69820023 11.54030037 0.9807440042
rtibia  -0 0 54.4341011
rfoot  -0 -20.44639969 -8.41176033
rtoes  5.373923086 19.29304026 -105.8922705
lfemur  -33.01660156 0.001733390032 -5.019519806
ltibia  -0 0 63.29230118
lfoot  4.419635009e-032 -2.917560101 -3.560480118
ltoes  -4.250644065 -19.5611806 -102.515957
183
root  5.731266502 38.65911228 -0.278446665 -156.8740234 -82.292099 157
lowerback  16.03409958 3.681459904 -3.01906991
upperback  5.200250149 4.106460094 0.4953460097
thorax  -3.684109926 1.898640037 1.450790048
lowerneck  -5.105269909 8.390199661 -0.6147170067
upperneck  5.067639828 11.3657999 -1.867269993
head  2.559779882 5.581679821 -0.05829789862
lclavicle  0 -9.442270133e-015 7.951389973e-016
lhumerus  -5.35172987 -16.85750008 84.07489777
lradius  2.398558851e-031 -2.591478241e-031 132.7859955
lwrist  -7.062250077e-031 -3.531125038e-031 3.509119987
lhand  -1.496451383e-031 -27.76390076 20.11240005
lfingers  90 7.125020027 -90
lthumb  89.89689403 5.08795885 91.16245106
rclavicle  0 -9.442270133e-015 7.951389973e-016
rhumerus  8.766389847 32.99349976 -80.67240143
rradius  -2.005989419e-031 2.906002493e-031 124.6169968
rwrist  7.062250077e-031 -0 -6.387650013
rhand  -7.920061211e-032 -33.2840004 9.303460121
rfingers  -90 -7.125020027 -90
rthumb  -92.93752616 -24.25625642 -97.11982154
rfemur  -17.07049942 12.71700001 0.6338229775
rtibia  -0 0 53.15110016
rfoot  -0 -22.26180077 -7.702189922
rtoes  5.373923086 19.29304026 -105.8922705
lfemur  -32.56600189 0.9273610115 -5.898250103
ltibia  -0 0 64.59970093
lfoot  4.419299441e-032 -2.830909967 -4.01113987
ltoes  -4.250644065 -19.5611806 -102.515957
